<mxfile host="app.diagrams.net" modified="2021-10-13T12:13:14.548Z" agent="5.0 (Macintosh; Intel Mac OS X 10_15_7) AppleWebKit/605.1.15 (KHTML, like Gecko) Version/15.0 Safari/605.1.15" etag="huIPV2ZVn88blO0NbxHU" version="15.5.2" type="github">
  <diagram id="WkRiMmGhr8Pje_BgADpZ" name="Page-1">
    <mxGraphModel dx="800" dy="1541" grid="1" gridSize="10" guides="1" tooltips="1" connect="1" arrows="1" fold="1" page="1" pageScale="1" pageWidth="850" pageHeight="1100" math="0" shadow="0">
      <root>
        <mxCell id="0" />
        <mxCell id="1" parent="0" />
        <mxCell id="j5ldB96CixXYRs785qHs-1" value="Actor" style="shape=umlActor;verticalLabelPosition=bottom;verticalAlign=top;html=1;outlineConnect=0;fillColor=#21C0A5;strokeColor=#006658;fontColor=#5C5C5C;" parent="1" vertex="1">
          <mxGeometry x="150" y="120" width="30" height="60" as="geometry" />
        </mxCell>
        <mxCell id="RrypMtc66WmKLvhK7Tp5-1" value="" style="endArrow=none;html=1;rounded=0;entryX=0;entryY=0.5;entryDx=0;entryDy=0;strokeColor=#006658;fontColor=#5C5C5C;" parent="1" source="j5ldB96CixXYRs785qHs-1" target="j5ldB96CixXYRs785qHs-2" edge="1">
          <mxGeometry width="50" height="50" relative="1" as="geometry">
            <mxPoint x="130" y="350" as="sourcePoint" />
            <mxPoint x="180" y="300" as="targetPoint" />
          </mxGeometry>
        </mxCell>
        <mxCell id="RrypMtc66WmKLvhK7Tp5-2" value="" style="endArrow=none;html=1;rounded=0;exitX=1;exitY=0.3333333333333333;exitDx=0;exitDy=0;exitPerimeter=0;strokeColor=#006658;fontColor=#5C5C5C;" parent="1" source="j5ldB96CixXYRs785qHs-1" target="D50xqkXgmDEeLtS9WKug-3" edge="1">
          <mxGeometry width="50" height="50" relative="1" as="geometry">
            <mxPoint x="180" y="310" as="sourcePoint" />
            <mxPoint x="330" y="170" as="targetPoint" />
          </mxGeometry>
        </mxCell>
        <mxCell id="D50xqkXgmDEeLtS9WKug-1" value="Гедымин" style="swimlane;" vertex="1" parent="1">
          <mxGeometry x="280" y="-35" width="410" height="530" as="geometry" />
        </mxCell>
        <mxCell id="D50xqkXgmDEeLtS9WKug-5" value="закрыть фискальную смену" style="ellipse;whiteSpace=wrap;html=1;fillColor=none;strokeColor=#006658;fontColor=#5C5C5C;" vertex="1" parent="D50xqkXgmDEeLtS9WKug-1">
          <mxGeometry x="40" y="165" width="120" height="65" as="geometry" />
        </mxCell>
        <mxCell id="D50xqkXgmDEeLtS9WKug-4" value="создавать заказ" style="ellipse;whiteSpace=wrap;html=1;fillColor=none;strokeColor=#006658;fontColor=#5C5C5C;" vertex="1" parent="D50xqkXgmDEeLtS9WKug-1">
          <mxGeometry x="40" y="285" width="120" height="50" as="geometry" />
        </mxCell>
        <mxCell id="D50xqkXgmDEeLtS9WKug-3" value="открыть фискальную смену" style="ellipse;whiteSpace=wrap;html=1;fillColor=none;strokeColor=#006658;fontColor=#5C5C5C;" vertex="1" parent="D50xqkXgmDEeLtS9WKug-1">
          <mxGeometry x="40" y="35" width="120" height="65" as="geometry" />
        </mxCell>
        <mxCell id="D50xqkXgmDEeLtS9WKug-2" value="создавать заказ" style="ellipse;whiteSpace=wrap;html=1;fillColor=none;strokeColor=#006658;fontColor=#5C5C5C;" vertex="1" parent="D50xqkXgmDEeLtS9WKug-1">
          <mxGeometry x="30" y="365" width="120" height="50" as="geometry" />
        </mxCell>
        <mxCell id="j5ldB96CixXYRs785qHs-2" value="создать заказ" style="ellipse;whiteSpace=wrap;html=1;fillColor=none;strokeColor=#006658;fontColor=#5C5C5C;" parent="D50xqkXgmDEeLtS9WKug-1" vertex="1">
          <mxGeometry x="40" y="106" width="120" height="50" as="geometry" />
        </mxCell>
        <mxCell id="D50xqkXgmDEeLtS9WKug-6" value="" style="endArrow=classic;html=1;rounded=0;" edge="1" parent="1" source="j5ldB96CixXYRs785qHs-1" target="D50xqkXgmDEeLtS9WKug-5">
          <mxGeometry width="50" height="50" relative="1" as="geometry">
            <mxPoint x="380" y="200" as="sourcePoint" />
            <mxPoint x="430" y="150" as="targetPoint" />
          </mxGeometry>
        </mxCell>
        <mxCell id="D50xqkXgmDEeLtS9WKug-7" value="" style="endArrow=classic;html=1;rounded=0;" edge="1" parent="1" source="j5ldB96CixXYRs785qHs-1" target="D50xqkXgmDEeLtS9WKug-4">
          <mxGeometry width="50" height="50" relative="1" as="geometry">
            <mxPoint x="190" y="163" as="sourcePoint" />
            <mxPoint x="345.9086165519036" y="194.18172331038068" as="targetPoint" />
          </mxGeometry>
        </mxCell>
        <mxCell id="D50xqkXgmDEeLtS9WKug-8" value="" style="endArrow=classic;html=1;rounded=0;" edge="1" parent="1" source="j5ldB96CixXYRs785qHs-1" target="D50xqkXgmDEeLtS9WKug-2">
          <mxGeometry width="50" height="50" relative="1" as="geometry">
            <mxPoint x="200" y="173" as="sourcePoint" />
            <mxPoint x="355.9086165519036" y="204.18172331038068" as="targetPoint" />
          </mxGeometry>
        </mxCell>
      </root>
    </mxGraphModel>
  </diagram>
</mxfile>
